<svg width="595" height="228" viewBox="0 0 595 228" fill="none" xmlns="http://www.w3.org/2000/svg">
<path d="M24.832 26.504L16.576 24.392L30.976 0.199997H40.96L24.832 26.504ZM16.32 45V23.496H25.088V45H16.32ZM16.576 26.504L0.448 0.199997H10.432L24.832 24.392L16.576 26.504ZM54.6255 45.768C51.3828 45.768 48.4815 45.064 45.9215 43.656C43.4042 42.2053 41.4202 40.2213 39.9695 37.704C38.5615 35.1867 37.8575 32.2853 37.8575 29C37.8575 25.7147 38.5615 22.8133 39.9695 20.296C41.3775 17.7787 43.3402 15.816 45.8575 14.408C48.3748 12.9573 51.2548 12.232 54.4975 12.232C57.7828 12.232 60.6842 12.9573 63.2015 14.408C65.7188 15.816 67.6815 17.7787 69.0895 20.296C70.4975 22.8133 71.2015 25.7147 71.2015 29C71.2015 32.2853 70.4975 35.1867 69.0895 37.704C67.6815 40.2213 65.7188 42.2053 63.2015 43.656C60.7268 45.064 57.8682 45.768 54.6255 45.768ZM54.6255 37.96C56.2042 37.96 57.5908 37.576 58.7855 36.808C59.9802 36.04 60.8975 34.9947 61.5375 33.672C62.2202 32.3067 62.5615 30.7493 62.5615 29C62.5615 27.2507 62.2202 25.7147 61.5375 24.392C60.8548 23.0267 59.8948 21.96 58.6575 21.192C57.4628 20.424 56.0762 20.04 54.4975 20.04C52.9615 20.04 51.5748 20.424 50.3375 21.192C49.1428 21.96 48.2042 23.0267 47.5215 24.392C46.8388 25.7147 46.4975 27.2507 46.4975 29C46.4975 30.7493 46.8388 32.3067 47.5215 33.672C48.2042 34.9947 49.1642 36.04 50.4015 36.808C51.6388 37.576 53.0468 37.96 54.6255 37.96ZM97.893 45L97.381 39.112V13H105.829V45H97.893ZM76.197 29.384V13H84.645V29.384H76.197ZM84.645 29.384C84.645 31.5173 84.8797 33.2027 85.349 34.44C85.861 35.6347 86.565 36.5093 87.461 37.064C88.3997 37.576 89.445 37.832 90.597 37.832C92.8157 37.8747 94.501 37.2133 95.653 35.848C96.805 34.44 97.381 32.4133 97.381 29.768H100.261C100.261 33.1813 99.749 36.0827 98.725 38.472C97.701 40.8187 96.293 42.632 94.501 43.912C92.709 45.1493 90.597 45.768 88.165 45.768C85.605 45.768 83.429 45.256 81.637 44.232C79.845 43.208 78.4797 41.6293 77.541 39.496C76.645 37.32 76.197 34.5253 76.197 31.112V29.384H84.645ZM119.1 28.168C119.1 24.712 119.761 21.8533 121.084 19.592C122.449 17.3307 124.177 15.6453 126.268 14.536C128.401 13.4267 130.62 12.872 132.924 12.872V21.064C130.961 21.064 129.105 21.2987 127.356 21.768C125.649 22.2373 124.263 23.0053 123.196 24.072C122.129 25.1387 121.596 26.504 121.596 28.168H119.1ZM113.148 45V13H121.596V45H113.148ZM153.864 45V0.199997H170.504C173.661 0.199997 176.456 0.818665 178.888 2.056C181.32 3.29333 183.219 5 184.584 7.176C185.949 9.30933 186.632 11.8053 186.632 14.664C186.632 17.48 185.907 19.9973 184.456 22.216C183.048 24.392 181.107 26.0987 178.632 27.336C176.157 28.5307 173.341 29.128 170.184 29.128H162.632V45H153.864ZM178.504 45L168.136 27.016L174.856 22.216L188.424 45H178.504ZM162.632 21.128H170.568C171.891 21.128 173.064 20.8507 174.088 20.296C175.155 19.7413 175.987 18.9733 176.584 17.992C177.224 17.0107 177.544 15.9013 177.544 14.664C177.544 12.744 176.84 11.1867 175.432 9.992C174.067 8.79733 172.296 8.2 170.12 8.2H162.632V21.128ZM208.362 45.768C205.205 45.768 202.41 45.064 199.978 43.656C197.546 42.2053 195.626 40.2213 194.218 37.704C192.853 35.1867 192.17 32.2853 192.17 29C192.17 25.7147 192.874 22.8133 194.282 20.296C195.733 17.7787 197.695 15.816 200.17 14.408C202.687 12.9573 205.567 12.232 208.81 12.232C211.626 12.232 214.207 12.9787 216.554 14.472C218.943 15.9227 220.842 18.0773 222.25 20.936C223.701 23.752 224.426 27.1867 224.426 31.24H200.17L200.938 30.472C200.938 32.0507 201.322 33.4373 202.09 34.632C202.901 35.784 203.925 36.68 205.162 37.32C206.442 37.9173 207.807 38.216 209.258 38.216C211.007 38.216 212.437 37.8533 213.546 37.128C214.655 36.36 215.509 35.3787 216.106 34.184L223.658 37.128C222.762 38.92 221.589 40.4773 220.138 41.8C218.73 43.08 217.045 44.0613 215.082 44.744C213.119 45.4267 210.879 45.768 208.362 45.768ZM201.386 25.736L200.618 24.968H216.042L215.338 25.736C215.338 24.2 214.975 22.984 214.25 22.088C213.525 21.1493 212.629 20.4667 211.562 20.04C210.538 19.6133 209.535 19.4 208.554 19.4C207.573 19.4 206.527 19.6133 205.418 20.04C204.309 20.4667 203.349 21.1493 202.538 22.088C201.77 22.984 201.386 24.2 201.386 25.736ZM241.304 45.768C239.256 45.768 237.336 45.4693 235.544 44.872C233.752 44.232 232.173 43.336 230.808 42.184C229.442 40.9893 228.376 39.5387 227.608 37.832L234.84 34.504C235.48 35.528 236.354 36.424 237.464 37.192C238.573 37.9173 239.853 38.28 241.304 38.28C242.712 38.28 243.8 38.088 244.568 37.704C245.336 37.2773 245.72 36.68 245.72 35.912C245.72 35.144 245.4 34.5893 244.76 34.248C244.162 33.864 243.33 33.544 242.264 33.288L239.32 32.52C236.248 31.7093 233.816 30.4293 232.024 28.68C230.274 26.888 229.4 24.84 229.4 22.536C229.4 19.2507 230.445 16.712 232.536 14.92C234.669 13.128 237.677 12.232 241.56 12.232C243.565 12.232 245.421 12.5307 247.128 13.128C248.877 13.7253 250.37 14.5573 251.608 15.624C252.845 16.6907 253.698 17.928 254.168 19.336L247.192 22.536C246.893 21.6827 246.168 21 245.016 20.488C243.864 19.9333 242.712 19.656 241.56 19.656C240.408 19.656 239.512 19.912 238.872 20.424C238.274 20.8933 237.976 21.5547 237.976 22.408C237.976 22.9627 238.274 23.432 238.872 23.816C239.469 24.1573 240.322 24.456 241.432 24.712L245.592 25.736C247.682 26.248 249.346 27.08 250.584 28.232C251.864 29.3413 252.781 30.6 253.336 32.008C253.933 33.3733 254.232 34.7173 254.232 36.04C254.232 37.96 253.656 39.6667 252.504 41.16C251.394 42.6107 249.858 43.7413 247.896 44.552C245.976 45.3627 243.778 45.768 241.304 45.768ZM280.268 45L279.756 39.112V13H288.204V45H280.268ZM258.572 29.384V13H267.02V29.384H258.572ZM267.02 29.384C267.02 31.5173 267.255 33.2027 267.724 34.44C268.236 35.6347 268.94 36.5093 269.836 37.064C270.775 37.576 271.82 37.832 272.972 37.832C275.191 37.8747 276.876 37.2133 278.028 35.848C279.18 34.44 279.756 32.4133 279.756 29.768H282.636C282.636 33.1813 282.124 36.0827 281.1 38.472C280.076 40.8187 278.668 42.632 276.876 43.912C275.084 45.1493 272.972 45.768 270.54 45.768C267.98 45.768 265.804 45.256 264.012 44.232C262.22 43.208 260.855 41.6293 259.916 39.496C259.02 37.32 258.572 34.5253 258.572 31.112V29.384H267.02ZM295.523 45V13H303.459L303.843 17.16C304.824 15.5387 306.083 14.3227 307.619 13.512C309.155 12.6587 310.862 12.232 312.739 12.232C315.342 12.232 317.518 12.7867 319.267 13.896C321.059 15.0053 322.36 16.712 323.171 19.016C324.11 16.84 325.432 15.176 327.139 14.024C328.846 12.8293 330.83 12.232 333.091 12.232C336.846 12.232 339.704 13.4267 341.667 15.816C343.63 18.1627 344.611 21.7893 344.611 26.696V45H336.163V28.616C336.163 26.44 335.928 24.7547 335.459 23.56C334.99 22.3653 334.35 21.512 333.539 21C332.728 20.4453 331.768 20.168 330.659 20.168C328.611 20.1253 327.032 20.7867 325.923 22.152C324.814 23.5173 324.259 25.544 324.259 28.232V45H315.811V28.616C315.811 26.44 315.576 24.7547 315.107 23.56C314.68 22.3653 314.04 21.512 313.187 21C312.376 20.4453 311.416 20.168 310.307 20.168C308.259 20.1253 306.68 20.7867 305.571 22.152C304.504 23.5173 303.971 25.544 303.971 28.232V45H295.523ZM365.8 45.768C362.642 45.768 359.848 45.064 357.416 43.656C354.984 42.2053 353.064 40.2213 351.656 37.704C350.29 35.1867 349.608 32.2853 349.608 29C349.608 25.7147 350.312 22.8133 351.72 20.296C353.17 17.7787 355.133 15.816 357.608 14.408C360.125 12.9573 363.005 12.232 366.248 12.232C369.064 12.232 371.645 12.9787 373.992 14.472C376.381 15.9227 378.28 18.0773 379.688 20.936C381.138 23.752 381.864 27.1867 381.864 31.24H357.608L358.376 30.472C358.376 32.0507 358.76 33.4373 359.528 34.632C360.338 35.784 361.362 36.68 362.6 37.32C363.88 37.9173 365.245 38.216 366.696 38.216C368.445 38.216 369.874 37.8533 370.984 37.128C372.093 36.36 372.946 35.3787 373.544 34.184L381.096 37.128C380.2 38.92 379.026 40.4773 377.576 41.8C376.168 43.08 374.482 44.0613 372.52 44.744C370.557 45.4267 368.317 45.768 365.8 45.768ZM358.824 25.736L358.056 24.968H373.48L372.776 25.736C372.776 24.2 372.413 22.984 371.688 22.088C370.962 21.1493 370.066 20.4667 369 20.04C367.976 19.6133 366.973 19.4 365.992 19.4C365.01 19.4 363.965 19.6133 362.856 20.04C361.746 20.4667 360.786 21.1493 359.976 22.088C359.208 22.984 358.824 24.2 358.824 25.736ZM467.052 130V85.2H475.82V122H495.532V130H467.052ZM514.675 130.768C511.517 130.768 508.723 130.064 506.291 128.656C503.859 127.205 501.939 125.221 500.531 122.704C499.165 120.187 498.483 117.285 498.483 114C498.483 110.715 499.187 107.813 500.595 105.296C502.045 102.779 504.008 100.816 506.483 99.408C509 97.9573 511.88 97.232 515.123 97.232C517.939 97.232 520.52 97.9787 522.867 99.472C525.256 100.923 527.155 103.077 528.562 105.936C530.013 108.752 530.739 112.187 530.739 116.24H506.483L507.251 115.472C507.251 117.051 507.635 118.437 508.403 119.632C509.213 120.784 510.237 121.68 511.475 122.32C512.755 122.917 514.12 123.216 515.571 123.216C517.32 123.216 518.749 122.853 519.859 122.128C520.968 121.36 521.821 120.379 522.419 119.184L529.971 122.128C529.075 123.92 527.901 125.477 526.451 126.8C525.043 128.08 523.357 129.061 521.395 129.744C519.432 130.427 517.192 130.768 514.675 130.768ZM507.699 110.736L506.931 109.968H522.355L521.651 110.736C521.651 109.2 521.288 107.984 520.563 107.088C519.837 106.149 518.941 105.467 517.875 105.04C516.851 104.613 515.848 104.4 514.867 104.4C513.885 104.4 512.84 104.613 511.731 105.04C510.621 105.467 509.661 106.149 508.851 107.088C508.083 107.984 507.699 109.2 507.699 110.736ZM548.832 130.768C545.291 130.768 542.603 129.893 540.768 128.144C538.976 126.395 538.08 123.899 538.08 120.656V88.016H546.528V118.8C546.528 120.165 546.827 121.211 547.424 121.936C548.021 122.619 548.896 122.96 550.048 122.96C550.475 122.96 550.944 122.875 551.456 122.704C551.968 122.491 552.501 122.192 553.056 121.808L556 128.144C554.976 128.912 553.824 129.531 552.544 130C551.307 130.512 550.069 130.768 548.832 130.768ZM532.896 105.168V98H554.528V105.168H532.896ZM558.582 100.304L562.486 85.2H571.254L564.982 100.304H558.582ZM581.991 130.768C579.943 130.768 578.023 130.469 576.231 129.872C574.439 129.232 572.86 128.336 571.495 127.184C570.13 125.989 569.063 124.539 568.295 122.832L575.527 119.504C576.167 120.528 577.042 121.424 578.151 122.192C579.26 122.917 580.54 123.28 581.991 123.28C583.399 123.28 584.487 123.088 585.255 122.704C586.023 122.277 586.407 121.68 586.407 120.912C586.407 120.144 586.087 119.589 585.447 119.248C584.85 118.864 584.018 118.544 582.951 118.288L580.007 117.52C576.935 116.709 574.503 115.429 572.711 113.68C570.962 111.888 570.087 109.84 570.087 107.536C570.087 104.251 571.132 101.712 573.223 99.92C575.356 98.128 578.364 97.232 582.247 97.232C584.252 97.232 586.108 97.5307 587.815 98.128C589.564 98.7253 591.058 99.5573 592.295 100.624C593.532 101.691 594.386 102.928 594.855 104.336L587.879 107.536C587.58 106.683 586.855 106 585.703 105.488C584.551 104.933 583.399 104.656 582.247 104.656C581.095 104.656 580.199 104.912 579.559 105.424C578.962 105.893 578.663 106.555 578.663 107.408C578.663 107.963 578.962 108.432 579.559 108.816C580.156 109.157 581.01 109.456 582.119 109.712L586.279 110.736C588.37 111.248 590.034 112.08 591.271 113.232C592.551 114.341 593.468 115.6 594.023 117.008C594.62 118.373 594.919 119.717 594.919 121.04C594.919 122.96 594.343 124.667 593.191 126.16C592.082 127.611 590.546 128.741 588.583 129.552C586.663 130.363 584.466 130.768 581.991 130.768ZM4.864 215V170.2H14.4L27.456 189.528L40.512 170.2H49.984V215H41.28V183.896L27.456 204.248L13.632 183.96V215H4.864ZM77.851 215L77.595 208.536V198.808C77.595 196.888 77.3817 195.245 76.955 193.88C76.571 192.515 75.931 191.469 75.035 190.744C74.1817 189.976 73.0083 189.592 71.515 189.592C70.1497 189.592 68.9123 189.891 67.803 190.488C66.6937 191.085 65.755 192.003 64.987 193.24L57.563 190.68C58.1603 189.315 59.035 187.992 60.187 186.712C61.339 185.389 62.8323 184.323 64.667 183.512C66.5443 182.659 68.827 182.232 71.515 182.232C74.7577 182.232 77.4457 182.851 79.579 184.088C81.755 185.325 83.355 187.075 84.379 189.336C85.4457 191.555 85.9577 194.2 85.915 197.272L85.723 215H77.851ZM68.891 215.768C65.051 215.768 62.0643 214.915 59.931 213.208C57.8403 211.501 56.795 209.091 56.795 205.976C56.795 202.563 57.9257 200.003 60.187 198.296C62.491 196.547 65.7123 195.672 69.851 195.672H77.979V201.944H72.795C70.0217 201.944 68.1017 202.285 67.035 202.968C65.9683 203.608 65.435 204.525 65.435 205.72C65.435 206.659 65.8617 207.405 66.715 207.96C67.5683 208.472 68.763 208.728 70.299 208.728C71.707 208.728 72.9443 208.408 74.011 207.768C75.1203 207.085 75.995 206.232 76.635 205.208C77.275 204.141 77.595 203.053 77.595 201.944H79.643C79.643 206.296 78.811 209.688 77.147 212.12C75.5257 214.552 72.7737 215.768 68.891 215.768ZM100.712 206.872L95.656 201.048L112.04 183H122.088L100.712 206.872ZM92.648 215V170.2H101.096V215H92.648ZM113.128 215L102.504 199.512L108.008 193.688L123.048 215H113.128ZM139.862 215.768C136.705 215.768 133.91 215.064 131.478 213.656C129.046 212.205 127.126 210.221 125.718 207.704C124.353 205.187 123.67 202.285 123.67 199C123.67 195.715 124.374 192.813 125.782 190.296C127.233 187.779 129.195 185.816 131.67 184.408C134.187 182.957 137.067 182.232 140.31 182.232C143.126 182.232 145.707 182.979 148.054 184.472C150.443 185.923 152.342 188.077 153.75 190.936C155.201 193.752 155.926 197.187 155.926 201.24H131.67L132.438 200.472C132.438 202.051 132.822 203.437 133.59 204.632C134.401 205.784 135.425 206.68 136.662 207.32C137.942 207.917 139.307 208.216 140.758 208.216C142.507 208.216 143.937 207.853 145.046 207.128C146.155 206.36 147.009 205.379 147.606 204.184L155.158 207.128C154.262 208.92 153.089 210.477 151.638 211.8C150.23 213.08 148.545 214.061 146.582 214.744C144.619 215.427 142.379 215.768 139.862 215.768ZM132.886 195.736L132.118 194.968H147.542L146.838 195.736C146.838 194.2 146.475 192.984 145.75 192.088C145.025 191.149 144.129 190.467 143.062 190.04C142.038 189.613 141.035 189.4 140.054 189.4C139.073 189.4 138.027 189.613 136.918 190.04C135.809 190.467 134.849 191.149 134.038 192.088C133.27 192.984 132.886 194.2 132.886 195.736ZM177.302 215V170.2H186.07V215H177.302ZM207.77 215.768C204.228 215.768 201.54 214.893 199.706 213.144C197.914 211.395 197.018 208.899 197.018 205.656V173.016H205.466V203.8C205.466 205.165 205.764 206.211 206.362 206.936C206.959 207.619 207.834 207.96 208.986 207.96C209.412 207.96 209.882 207.875 210.394 207.704C210.906 207.491 211.439 207.192 211.994 206.808L214.938 213.144C213.914 213.912 212.762 214.531 211.482 215C210.244 215.512 209.007 215.768 207.77 215.768ZM191.834 190.168V183H213.466V190.168H191.834ZM266.306 215V170.2H275.074V215H266.306ZM236.802 215V170.136H245.57V215H236.802ZM243.33 196.12V188.056H270.466V196.12H243.33ZM302.914 215L302.658 208.536V198.808C302.658 196.888 302.444 195.245 302.018 193.88C301.634 192.515 300.994 191.469 300.098 190.744C299.244 189.976 298.071 189.592 296.578 189.592C295.212 189.592 293.975 189.891 292.866 190.488C291.756 191.085 290.818 192.003 290.05 193.24L282.626 190.68C283.223 189.315 284.098 187.992 285.25 186.712C286.402 185.389 287.895 184.323 289.73 183.512C291.607 182.659 293.89 182.232 296.578 182.232C299.82 182.232 302.508 182.851 304.642 184.088C306.818 185.325 308.418 187.075 309.442 189.336C310.508 191.555 311.02 194.2 310.978 197.272L310.786 215H302.914ZM293.954 215.768C290.114 215.768 287.127 214.915 284.994 213.208C282.903 211.501 281.858 209.091 281.858 205.976C281.858 202.563 282.988 200.003 285.25 198.296C287.554 196.547 290.775 195.672 294.914 195.672H303.042V201.944H297.858C295.084 201.944 293.164 202.285 292.098 202.968C291.031 203.608 290.498 204.525 290.498 205.72C290.498 206.659 290.924 207.405 291.778 207.96C292.631 208.472 293.826 208.728 295.362 208.728C296.77 208.728 298.007 208.408 299.074 207.768C300.183 207.085 301.058 206.232 301.698 205.208C302.338 204.141 302.658 203.053 302.658 201.944H304.706C304.706 206.296 303.874 209.688 302.21 212.12C300.588 214.552 297.836 215.768 293.954 215.768ZM318.031 227.8V183H325.967L326.479 188.888V227.8H318.031ZM336.143 215.768C333.455 215.768 331.172 215.085 329.295 213.72C327.46 212.355 326.052 210.413 325.071 207.896C324.089 205.379 323.599 202.413 323.599 199C323.599 195.544 324.089 192.579 325.071 190.104C326.052 187.587 327.46 185.645 329.295 184.28C331.172 182.915 333.455 182.232 336.143 182.232C339.087 182.232 341.625 182.915 343.759 184.28C345.935 185.645 347.62 187.587 348.815 190.104C350.009 192.579 350.607 195.544 350.607 199C350.607 202.413 350.009 205.379 348.815 207.896C347.62 210.413 345.935 212.355 343.759 213.72C341.625 215.085 339.087 215.768 336.143 215.768ZM333.967 208.024C335.503 208.024 336.847 207.64 337.999 206.872C339.193 206.104 340.132 205.037 340.815 203.672C341.497 202.307 341.839 200.749 341.839 199C341.839 197.251 341.497 195.693 340.815 194.328C340.175 192.963 339.257 191.917 338.063 191.192C336.911 190.424 335.567 190.04 334.031 190.04C332.58 190.04 331.279 190.424 330.127 191.192C328.975 191.96 328.079 193.027 327.439 194.392C326.799 195.715 326.479 197.251 326.479 199C326.479 200.749 326.799 202.307 327.439 203.672C328.079 205.037 328.953 206.104 330.062 206.872C331.215 207.64 332.516 208.024 333.967 208.024ZM356.468 227.8V183H364.404L364.916 188.888V227.8H356.468ZM374.58 215.768C371.892 215.768 369.609 215.085 367.732 213.72C365.897 212.355 364.489 210.413 363.508 207.896C362.527 205.379 362.036 202.413 362.036 199C362.036 195.544 362.527 192.579 363.508 190.104C364.489 187.587 365.897 185.645 367.732 184.28C369.609 182.915 371.892 182.232 374.58 182.232C377.524 182.232 380.063 182.915 382.196 184.28C384.372 185.645 386.057 187.587 387.252 190.104C388.447 192.579 389.044 195.544 389.044 199C389.044 202.413 388.447 205.379 387.252 207.896C386.057 210.413 384.372 212.355 382.196 213.72C380.063 215.085 377.524 215.768 374.58 215.768ZM372.404 208.024C373.94 208.024 375.284 207.64 376.436 206.872C377.631 206.104 378.569 205.037 379.252 203.672C379.935 202.307 380.276 200.749 380.276 199C380.276 197.251 379.935 195.693 379.252 194.328C378.612 192.963 377.695 191.917 376.5 191.192C375.348 190.424 374.004 190.04 372.468 190.04C371.017 190.04 369.716 190.424 368.564 191.192C367.412 191.96 366.516 193.027 365.876 194.392C365.236 195.715 364.916 197.251 364.916 199C364.916 200.749 365.236 202.307 365.876 203.672C366.516 205.037 367.391 206.104 368.5 206.872C369.652 207.64 370.953 208.024 372.404 208.024ZM409.05 215.768C405.892 215.768 403.098 215.064 400.666 213.656C398.234 212.205 396.314 210.221 394.906 207.704C393.54 205.187 392.858 202.285 392.858 199C392.858 195.715 393.562 192.813 394.97 190.296C396.42 187.779 398.383 185.816 400.858 184.408C403.375 182.957 406.255 182.232 409.498 182.232C412.314 182.232 414.895 182.979 417.242 184.472C419.631 185.923 421.53 188.077 422.938 190.936C424.388 193.752 425.114 197.187 425.114 201.24H400.858L401.626 200.472C401.626 202.051 402.01 203.437 402.778 204.632C403.588 205.784 404.612 206.68 405.85 207.32C407.13 207.917 408.495 208.216 409.946 208.216C411.695 208.216 413.124 207.853 414.234 207.128C415.343 206.36 416.196 205.379 416.794 204.184L424.346 207.128C423.45 208.92 422.276 210.477 420.826 211.8C419.418 213.08 417.732 214.061 415.77 214.744C413.807 215.427 411.567 215.768 409.05 215.768ZM402.074 195.736L401.306 194.968H416.73L416.026 195.736C416.026 194.2 415.663 192.984 414.938 192.088C414.212 191.149 413.316 190.467 412.25 190.04C411.226 189.613 410.223 189.4 409.242 189.4C408.26 189.4 407.215 189.613 406.106 190.04C404.996 190.467 404.036 191.149 403.226 192.088C402.458 192.984 402.074 194.2 402.074 195.736ZM430.023 215V183H437.959L438.471 188.888V215H430.023ZM451.207 215V198.616H459.655V215H451.207ZM451.207 198.616C451.207 196.44 450.951 194.755 450.439 193.56C449.97 192.365 449.287 191.512 448.391 191C447.495 190.445 446.45 190.168 445.255 190.168C443.079 190.125 441.394 190.787 440.199 192.152C439.047 193.517 438.471 195.544 438.471 198.232H435.655C435.655 194.819 436.146 191.939 437.127 189.592C438.151 187.203 439.559 185.389 441.351 184.152C443.186 182.872 445.319 182.232 447.751 182.232C450.268 182.232 452.423 182.744 454.215 183.768C456.007 184.792 457.372 186.392 458.311 188.568C459.25 190.701 459.698 193.475 459.655 196.888V198.616H451.207Z" fill="black"/>
<path d="M4.864 130V85.2H19.2C23.7653 85.2 27.7973 86.16 31.296 88.08C34.8373 90 37.5893 92.6453 39.552 96.016C41.5573 99.344 42.56 103.205 42.56 107.6C42.56 111.952 41.5573 115.813 39.552 119.184C37.5893 122.555 34.8373 125.2 31.296 127.12C27.7973 129.04 23.7653 130 19.2 130H4.864ZM13.632 121.808H19.2C21.248 121.808 23.1467 121.445 24.896 120.72C26.6453 119.995 28.16 118.992 29.44 117.712C30.7627 116.432 31.7867 114.939 32.512 113.232C33.2373 111.483 33.6 109.605 33.6 107.6C33.6 105.595 33.2373 103.739 32.512 102.032C31.7867 100.283 30.7627 98.768 29.44 97.488C28.16 96.208 26.6453 95.2053 24.896 94.48C23.1467 93.7547 21.248 93.392 19.2 93.392H13.632V121.808ZM62.9245 130.768C59.7672 130.768 56.9725 130.064 54.5405 128.656C52.1085 127.205 50.1885 125.221 48.7805 122.704C47.4152 120.187 46.7325 117.285 46.7325 114C46.7325 110.715 47.4365 107.813 48.8445 105.296C50.2952 102.779 52.2578 100.816 54.7325 99.408C57.2498 97.9573 60.1298 97.232 63.3725 97.232C66.1885 97.232 68.7698 97.9787 71.1165 99.472C73.5058 100.923 75.4045 103.077 76.8125 105.936C78.2632 108.752 78.9885 112.187 78.9885 116.24H54.7325L55.5005 115.472C55.5005 117.051 55.8845 118.437 56.6525 119.632C57.4632 120.784 58.4872 121.68 59.7245 122.32C61.0045 122.917 62.3698 123.216 63.8205 123.216C65.5698 123.216 66.9992 122.853 68.1085 122.128C69.2178 121.36 70.0712 120.379 70.6685 119.184L78.2205 122.128C77.3245 123.92 76.1512 125.477 74.7005 126.8C73.2925 128.08 71.6072 129.061 69.6445 129.744C67.6818 130.427 65.4418 130.768 62.9245 130.768ZM55.9485 110.736L55.1805 109.968H70.6045L69.9005 110.736C69.9005 109.2 69.5378 107.984 68.8125 107.088C68.0872 106.149 67.1912 105.467 66.1245 105.04C65.1005 104.613 64.0978 104.4 63.1165 104.4C62.1352 104.4 61.0898 104.613 59.9805 105.04C58.8712 105.467 57.9112 106.149 57.1005 107.088C56.3325 107.984 55.9485 109.2 55.9485 110.736ZM95.866 130.768C93.818 130.768 91.898 130.469 90.106 129.872C88.314 129.232 86.7353 128.336 85.37 127.184C84.0047 125.989 82.938 124.539 82.17 122.832L89.402 119.504C90.042 120.528 90.9167 121.424 92.026 122.192C93.1353 122.917 94.4153 123.28 95.866 123.28C97.274 123.28 98.362 123.088 99.13 122.704C99.898 122.277 100.282 121.68 100.282 120.912C100.282 120.144 99.962 119.589 99.322 119.248C98.7247 118.864 97.8927 118.544 96.826 118.288L93.882 117.52C90.81 116.709 88.378 115.429 86.586 113.68C84.8367 111.888 83.962 109.84 83.962 107.536C83.962 104.251 85.0073 101.712 87.098 99.92C89.2313 98.128 92.2393 97.232 96.122 97.232C98.1273 97.232 99.9833 97.5307 101.69 98.128C103.439 98.7253 104.933 99.5573 106.17 100.624C107.407 101.691 108.261 102.928 108.73 104.336L101.754 107.536C101.455 106.683 100.73 106 99.578 105.488C98.426 104.933 97.274 104.656 96.122 104.656C94.97 104.656 94.074 104.912 93.434 105.424C92.8367 105.893 92.538 106.555 92.538 107.408C92.538 107.963 92.8367 108.432 93.434 108.816C94.0313 109.157 94.8847 109.456 95.994 109.712L100.154 110.736C102.245 111.248 103.909 112.08 105.146 113.232C106.426 114.341 107.343 115.6 107.898 117.008C108.495 118.373 108.794 119.717 108.794 121.04C108.794 122.96 108.218 124.667 107.066 126.16C105.957 127.611 104.421 128.741 102.458 129.552C100.538 130.363 98.3407 130.768 95.866 130.768ZM128.175 130.768C125.017 130.768 122.223 130.064 119.791 128.656C117.359 127.205 115.439 125.221 114.031 122.704C112.665 120.187 111.983 117.285 111.983 114C111.983 110.715 112.687 107.813 114.095 105.296C115.545 102.779 117.508 100.816 119.983 99.408C122.5 97.9573 125.38 97.232 128.623 97.232C131.439 97.232 134.02 97.9787 136.367 99.472C138.756 100.923 140.655 103.077 142.062 105.936C143.513 108.752 144.239 112.187 144.239 116.24H119.983L120.751 115.472C120.751 117.051 121.135 118.437 121.903 119.632C122.713 120.784 123.737 121.68 124.975 122.32C126.255 122.917 127.62 123.216 129.071 123.216C130.82 123.216 132.249 122.853 133.359 122.128C134.468 121.36 135.321 120.379 135.919 119.184L143.471 122.128C142.575 123.92 141.401 125.477 139.951 126.8C138.543 128.08 136.857 129.061 134.895 129.744C132.932 130.427 130.692 130.768 128.175 130.768ZM121.199 110.736L120.431 109.968H135.855L135.151 110.736C135.151 109.2 134.788 107.984 134.063 107.088C133.337 106.149 132.441 105.467 131.375 105.04C130.351 104.613 129.348 104.4 128.367 104.4C127.385 104.4 126.34 104.613 125.231 105.04C124.121 105.467 123.161 106.149 122.351 107.088C121.583 107.984 121.199 109.2 121.199 110.736ZM155.1 113.168C155.1 109.712 155.761 106.853 157.084 104.592C158.449 102.331 160.177 100.645 162.268 99.536C164.401 98.4267 166.62 97.872 168.924 97.872V106.064C166.961 106.064 165.105 106.299 163.356 106.768C161.649 107.237 160.263 108.005 159.196 109.072C158.129 110.139 157.596 111.504 157.596 113.168H155.1ZM149.148 130V98H157.596V130H149.148ZM184.022 130L196.182 98H204.886L191.766 130H184.022ZM183.318 130L170.198 98H178.902L191.062 130H183.318ZM222.425 130.768C219.267 130.768 216.473 130.064 214.041 128.656C211.609 127.205 209.689 125.221 208.281 122.704C206.915 120.187 206.233 117.285 206.233 114C206.233 110.715 206.937 107.813 208.345 105.296C209.795 102.779 211.758 100.816 214.233 99.408C216.75 97.9573 219.63 97.232 222.873 97.232C225.689 97.232 228.27 97.9787 230.617 99.472C233.006 100.923 234.905 103.077 236.312 105.936C237.763 108.752 238.489 112.187 238.489 116.24H214.233L215.001 115.472C215.001 117.051 215.385 118.437 216.153 119.632C216.963 120.784 217.987 121.68 219.225 122.32C220.505 122.917 221.87 123.216 223.321 123.216C225.07 123.216 226.499 122.853 227.609 122.128C228.718 121.36 229.571 120.379 230.169 119.184L237.721 122.128C236.825 123.92 235.651 125.477 234.201 126.8C232.793 128.08 231.107 129.061 229.145 129.744C227.182 130.427 224.942 130.768 222.425 130.768ZM215.449 110.736L214.681 109.968H230.105L229.401 110.736C229.401 109.2 229.038 107.984 228.313 107.088C227.587 106.149 226.691 105.467 225.625 105.04C224.601 104.613 223.598 104.4 222.617 104.4C221.635 104.4 220.59 104.613 219.481 105.04C218.371 105.467 217.411 106.149 216.601 107.088C215.833 107.984 215.449 109.2 215.449 110.736ZM255.366 130.768C253.318 130.768 251.398 130.469 249.606 129.872C247.814 129.232 246.235 128.336 244.87 127.184C243.505 125.989 242.438 124.539 241.67 122.832L248.902 119.504C249.542 120.528 250.417 121.424 251.526 122.192C252.635 122.917 253.915 123.28 255.366 123.28C256.774 123.28 257.862 123.088 258.63 122.704C259.398 122.277 259.782 121.68 259.782 120.912C259.782 120.144 259.462 119.589 258.822 119.248C258.225 118.864 257.393 118.544 256.326 118.288L253.382 117.52C250.31 116.709 247.878 115.429 246.086 113.68C244.337 111.888 243.462 109.84 243.462 107.536C243.462 104.251 244.507 101.712 246.598 99.92C248.731 98.128 251.739 97.232 255.622 97.232C257.627 97.232 259.483 97.5307 261.19 98.128C262.939 98.7253 264.433 99.5573 265.67 100.624C266.907 101.691 267.761 102.928 268.23 104.336L261.254 107.536C260.955 106.683 260.23 106 259.078 105.488C257.926 104.933 256.774 104.656 255.622 104.656C254.47 104.656 253.574 104.912 252.934 105.424C252.337 105.893 252.038 106.555 252.038 107.408C252.038 107.963 252.337 108.432 252.934 108.816C253.531 109.157 254.385 109.456 255.494 109.712L259.654 110.736C261.745 111.248 263.409 112.08 264.646 113.232C265.926 114.341 266.843 115.6 267.398 117.008C267.995 118.373 268.294 119.717 268.294 121.04C268.294 122.96 267.718 124.667 266.566 126.16C265.457 127.611 263.921 128.741 261.958 129.552C260.038 130.363 257.841 130.768 255.366 130.768ZM320.717 130L303.565 85.2H312.333L329.997 130H320.717ZM285.325 130L302.989 85.2H311.757L294.605 130H285.325ZM293.645 120.144V112.4H321.741V120.144H293.645ZM370.582 111.504L362.326 109.392L376.726 85.2H386.71L370.582 111.504ZM362.07 130V108.496H370.838V130H362.07ZM362.326 111.504L346.198 85.2H356.182L370.582 109.392L362.326 111.504ZM399.8 130.768C396.642 130.768 393.848 130.064 391.416 128.656C388.984 127.205 387.064 125.221 385.656 122.704C384.29 120.187 383.608 117.285 383.608 114C383.608 110.715 384.312 107.813 385.72 105.296C387.17 102.779 389.133 100.816 391.608 99.408C394.125 97.9573 397.005 97.232 400.248 97.232C403.064 97.232 405.645 97.9787 407.992 99.472C410.381 100.923 412.28 103.077 413.688 105.936C415.138 108.752 415.864 112.187 415.864 116.24H391.608L392.376 115.472C392.376 117.051 392.76 118.437 393.528 119.632C394.338 120.784 395.362 121.68 396.6 122.32C397.88 122.917 399.245 123.216 400.696 123.216C402.445 123.216 403.874 122.853 404.984 122.128C406.093 121.36 406.946 120.379 407.544 119.184L415.096 122.128C414.2 123.92 413.026 125.477 411.576 126.8C410.168 128.08 408.482 129.061 406.52 129.744C404.557 130.427 402.317 130.768 399.8 130.768ZM392.824 110.736L392.056 109.968H407.48L406.776 110.736C406.776 109.2 406.413 107.984 405.688 107.088C404.962 106.149 404.066 105.467 403 105.04C401.976 104.613 400.973 104.4 399.992 104.4C399.01 104.4 397.965 104.613 396.856 105.04C395.746 105.467 394.786 106.149 393.976 107.088C393.208 107.984 392.824 109.2 392.824 110.736ZM432.741 130.768C430.693 130.768 428.773 130.469 426.981 129.872C425.189 129.232 423.61 128.336 422.245 127.184C420.88 125.989 419.813 124.539 419.045 122.832L426.277 119.504C426.917 120.528 427.792 121.424 428.901 122.192C430.01 122.917 431.29 123.28 432.741 123.28C434.149 123.28 435.237 123.088 436.005 122.704C436.773 122.277 437.157 121.68 437.157 120.912C437.157 120.144 436.837 119.589 436.197 119.248C435.6 118.864 434.768 118.544 433.701 118.288L430.757 117.52C427.685 116.709 425.253 115.429 423.461 113.68C421.712 111.888 420.837 109.84 420.837 107.536C420.837 104.251 421.882 101.712 423.973 99.92C426.106 98.128 429.114 97.232 432.997 97.232C435.002 97.232 436.858 97.5307 438.565 98.128C440.314 98.7253 441.808 99.5573 443.045 100.624C444.282 101.691 445.136 102.928 445.605 104.336L438.629 107.536C438.33 106.683 437.605 106 436.453 105.488C435.301 104.933 434.149 104.656 432.997 104.656C431.845 104.656 430.949 104.912 430.309 105.424C429.712 105.893 429.413 106.555 429.413 107.408C429.413 107.963 429.712 108.432 430.309 108.816C430.906 109.157 431.76 109.456 432.869 109.712L437.029 110.736C439.12 111.248 440.784 112.08 442.021 113.232C443.301 114.341 444.218 115.6 444.773 117.008C445.37 118.373 445.669 119.717 445.669 121.04C445.669 122.96 445.093 124.667 443.941 126.16C442.832 127.611 441.296 128.741 439.333 129.552C437.413 130.363 435.216 130.768 432.741 130.768Z" fill="#FA1239"/>
</svg>
